<svg width="706" height="631" viewBox="0 0 706 631" fill="none" xmlns="http://www.w3.org/2000/svg">
<g id="Group 2">
<path id="Vector" d="M171 631C189.225 631 204 616.225 204 598C204 579.775 189.225 565 171 565C152.775 565 138 579.775 138 598C138 616.225 152.775 631 171 631Z" fill="#563D3D"/>
<path id="Vector_2" d="M496 631C514.225 631 529 616.225 529 598C529 579.775 514.225 565 496 565C477.775 565 463 579.775 463 598C463 616.225 477.775 631 496 631Z" fill="#563D3D"/>
<g id="Group 1">
<path id="Vector_3" d="M550 554H114V550.86H546.862V398.514H150.653L131.406 358.359L134.234 357L152.627 395.372H550V554Z" fill="#412E2E"/>
<path id="Vector_4" d="M596.689 346H106.143L0 0H706L705.358 2.03574L596.689 346ZM108.465 342.869H594.386L701.72 3.13115H4.24359L108.465 342.869Z" fill="#412E2E"/>
<path id="Vector_5" d="M558.006 329H127.213L34 21H654L653.436 22.8135L558.006 329Z" fill="#F2F2F2"/>
<path id="Vector_6" d="M671 105H34V108H671V105Z" fill="#412E2E"/>
<path id="Vector_7" d="M634 221H69V224H634V221Z" fill="#412E2E"/>
<path id="Vector_8" d="M354 1H351V345H354V1Z" fill="#412E2E"/>
<path id="Vector_9" d="M495.018 0.943723L472.467 344.928L475.602 345.134L498.153 1.14927L495.018 0.943723Z" fill="#412E2E"/>
<path id="Vector_10" d="M210.641 0.940089L207.506 1.14444L229.926 345.138L233.061 344.933L210.641 0.940089Z" fill="#412E2E"/>
</g>
</g>
</svg>
